<svg width="14" height="19" viewBox="0 0 14 19" fill="none" xmlns="http://www.w3.org/2000/svg">
<path d="M6.625 1C3.51953 1 1 3.39805 1 6.35156C1 9.75 4.75 15.1355 6.12695 16.9957C6.18411 17.0742 6.25902 17.1381 6.34558 17.1822C6.43213 17.2262 6.52788 17.2492 6.625 17.2492C6.72212 17.2492 6.81787 17.2262 6.90442 17.1822C6.99098 17.1381 7.06589 17.0742 7.12305 16.9957C8.5 15.1363 12.25 9.75273 12.25 6.35156C12.25 3.39805 9.73047 1 6.625 1Z" stroke="#32732F" stroke-width="2" stroke-linecap="round" stroke-linejoin="round"/>
<path d="M6.625 8.5C7.66053 8.5 8.5 7.66053 8.5 6.625C8.5 5.58947 7.66053 4.75 6.625 4.75C5.58947 4.75 4.75 5.58947 4.75 6.625C4.75 7.66053 5.58947 8.5 6.625 8.5Z" stroke="#32732F" stroke-width="2" stroke-linecap="round" stroke-linejoin="round"/>
</svg>
