<svg width="30" height="30" viewBox="0 0 30 30" fill="none" xmlns="http://www.w3.org/2000/svg">
<path d="M15 0C12.0333 0 9.1332 0.879737 6.66646 2.52796C4.19972 4.17618 2.27713 6.51886 1.14181 9.25975C0.00649707 12.0006 -0.29055 15.0166 0.288228 17.9264C0.867007 20.8361 2.29563 23.5088 4.39342 25.6066C6.49121 27.7044 9.16394 29.133 12.0737 29.7118C14.9834 30.2906 17.9994 29.9935 20.7403 28.8582C23.4812 27.7229 25.8238 25.8003 27.4721 23.3336C29.1203 20.8668 30 17.9667 30 15C29.9884 11.0253 28.4043 7.21678 25.5938 4.40625C22.7832 1.59572 18.9747 0.0116292 15 0ZM15 4.5C15.89 4.5 16.7601 4.76392 17.5001 5.25838C18.2401 5.75285 18.8169 6.45565 19.1575 7.27792C19.4981 8.10019 19.5872 9.00499 19.4135 9.8779C19.2399 10.7508 18.8113 11.5526 18.182 12.182C17.5527 12.8113 16.7508 13.2399 15.8779 13.4135C15.005 13.5872 14.1002 13.498 13.2779 13.1574C12.4557 12.8168 11.7529 12.2401 11.2584 11.5C10.7639 10.76 10.5 9.89 10.5 8.99998C10.504 7.80773 10.9794 6.66545 11.8224 5.8224C12.6655 4.97935 13.8078 4.50396 15 4.49998V4.5ZM15 26.1634C13.2223 26.1553 11.4735 25.7136 9.90515 24.8767C8.33681 24.0397 6.99634 22.8328 6.00001 21.3606C6.07213 18.3606 12 16.7091 15 16.7091C18 16.7091 23.9279 18.3606 24 21.3606C23.0025 22.8317 21.6618 24.0378 20.0937 24.8746C18.5257 25.7114 16.7774 26.1538 15 26.1634Z" fill="#32732F"/>
</svg>
