<svg width="14" height="14" viewBox="0 0 14 14" fill="none" xmlns="http://www.w3.org/2000/svg">
<path d="M6.85938 2.17188V1" stroke="#32732F" stroke-width="2" stroke-linecap="round" stroke-linejoin="round"/>
<path d="M6.85938 12.7188V11.5469" stroke="#32732F" stroke-width="2" stroke-linecap="round" stroke-linejoin="round"/>
<path d="M6.85932 2.64062C6.02493 2.64063 5.20927 2.88805 4.5155 3.35161C3.82173 3.81517 3.28101 4.47405 2.9617 5.24493C2.64239 6.01581 2.55885 6.86406 2.72163 7.68241C2.88441 8.50077 3.28621 9.25248 3.87621 9.84248C4.46621 10.4325 5.21792 10.8343 6.03628 10.9971C6.85464 11.1598 7.70289 11.0763 8.47376 10.757C9.24464 10.4377 9.90352 9.89696 10.3671 9.20319C10.8306 8.50942 11.0781 7.69376 11.0781 6.85938C11.0781 5.74049 10.6336 4.66744 9.84242 3.87627C9.05125 3.0851 7.9782 2.64063 6.85932 2.64062Z" stroke="#32732F" stroke-width="2" stroke-miterlimit="10"/>
<path d="M11.5469 6.85938H12.7188" stroke="#32732F" stroke-width="2" stroke-linecap="round" stroke-linejoin="round"/>
<path d="M1 6.85938H2.17188" stroke="#32732F" stroke-width="2" stroke-linecap="round" stroke-linejoin="round"/>
</svg>
