<svg width="30" height="30" viewBox="0 0 30 30" fill="none" xmlns="http://www.w3.org/2000/svg">
<path d="M15 30C23.2843 30 30 23.2843 30 15C30 6.71573 23.2843 0 15 0C6.71573 0 0 6.71573 0 15C0 23.2843 6.71573 30 15 30Z" fill="#32732F"/>
<path opacity="0.1" d="M15 27.9C22.1245 27.9 27.9 22.1244 27.9 15C27.9 7.8755 22.1245 2.09998 15 2.09998C7.87553 2.09998 2.1 7.8755 2.1 15C2.1 22.1244 7.87553 27.9 15 27.9Z" fill="black"/>
<path d="M14.3819 22.6122V20.7346C13.4328 20.7161 12.4509 20.3814 11.8782 19.9166L12.2709 18.6712C12.9515 19.1812 13.7769 19.4612 14.6273 19.4704C15.7892 19.4704 16.5747 18.7083 16.5747 17.6487C16.5747 16.6262 15.9364 15.9942 14.7255 15.4365C13.0564 14.6929 12.0255 13.8377 12.0255 12.2205C12.0255 10.6775 12.9909 9.50636 14.4964 9.22753V7.34998H15.511V9.1532C16.2675 9.16353 17.0054 9.38921 17.6383 9.8038L17.2292 11.0308C16.6222 10.6153 15.9029 10.3948 15.1673 10.3987C13.9074 10.3987 13.4328 11.2538 13.4328 11.9974C13.4328 12.964 14.0382 13.4474 15.4619 14.1167C17.1474 14.8974 17.9983 15.8641 17.9983 17.5185C17.9983 18.9871 17.0983 20.3628 15.4128 20.6787V22.6122H14.3819Z" fill="#F2F2F2"/>
<path d="M15 30C23.2843 30 30 23.2843 30 15C30 6.71573 23.2843 0 15 0C6.71573 0 0 6.71573 0 15C0 23.2843 6.71573 30 15 30Z" fill="#32732F"/>
<path opacity="0.1" d="M15 27.9C22.1245 27.9 27.9 22.1244 27.9 15C27.9 7.8755 22.1245 2.09998 15 2.09998C7.87553 2.09998 2.1 7.8755 2.1 15C2.1 22.1244 7.87553 27.9 15 27.9Z" fill="black"/>
<path d="M14.3819 22.6122V20.7346C13.4328 20.7161 12.4509 20.3814 11.8782 19.9166L12.2709 18.6712C12.9515 19.1812 13.7769 19.4612 14.6273 19.4704C15.7892 19.4704 16.5747 18.7083 16.5747 17.6487C16.5747 16.6262 15.9364 15.9942 14.7255 15.4365C13.0564 14.6929 12.0255 13.8377 12.0255 12.2205C12.0255 10.6775 12.9909 9.50636 14.4964 9.22753V7.34998H15.511V9.1532C16.2675 9.16353 17.0054 9.38921 17.6383 9.8038L17.2292 11.0308C16.6222 10.6153 15.9029 10.3948 15.1673 10.3987C13.9074 10.3987 13.4328 11.2538 13.4328 11.9974C13.4328 12.964 14.0382 13.4474 15.4619 14.1167C17.1474 14.8974 17.9983 15.8641 17.9983 17.5185C17.9983 18.9871 17.0983 20.3628 15.4128 20.6787V22.6122H14.3819Z" fill="#F2F2F2"/>
</svg>
